<svg xmlns="http://www.w3.org/2000/svg" viewBox="0 0 100 24.30355427473583" xmlns:xlink="http://www.w3.org/1999/xlink" version="1.1"  ><g transform="translate(50 0) scale(0.2430355427473583)" id="logotypeSvgTemplate"><g fill="#3C4751"><g transform="translate(-208.36627140974966 77.9973649538867) scale(1.8298931342409603)" fill="#3C4751"><g id="line1" fill="#3C4751"><path d="M40.176-36.288C40.176-34.896 39.768-33.552 38.952-32.256C37.224-28.944 34.752-26.292 31.536-24.300C28.320-22.308 24.792-21.144 20.952-20.808C19.800-20.712 19.200-20.232 19.152-19.368C19.104-18.744 19.584-18.480 20.592-18.576C23.088-18.816 26.028-19.764 29.412-21.420C32.796-23.076 35.880-25.296 38.664-28.080C41.448-30.864 42.840-33.576 42.840-36.216C42.840-37.608 42.384-38.832 41.472-39.888C40.080-41.424 37.752-42.192 34.488-42.192C31.848-42.192 29.088-41.616 26.208-40.464C18.768-37.392 12.432-31.872 7.200-23.904C3.360-18.048 1.440-12.576 1.440-7.488C1.440-4.464 2.280-2.016 3.960-0.144C6.552 2.736 10.392 4.176 15.480 4.176C20.328 4.176 25.344 2.952 30.528 0.504C35.712-1.944 40.080-5.592 43.632-10.440C43.728-10.536 43.776-10.656 43.776-10.800C43.776-10.944 43.644-11.112 43.380-11.304C43.116-11.496 42.864-11.424 42.624-11.088C39.504-6.672 35.352-3.324 30.168-1.044C24.984 1.236 20.160 2.376 15.696 2.376L14.904 2.376C10.872 2.328 7.968 1.152 6.192-1.152C5.184-2.448 4.680-3.972 4.680-5.724C4.680-7.476 5.016-9.384 5.688-11.448C7.320-16.632 10.200-21.588 14.328-26.316C18.456-31.044 22.476-34.560 26.388-36.864C30.300-39.168 33.480-40.320 35.928-40.320C38.760-40.320 40.176-38.976 40.176-36.288Z"></path><path d="M56.304-7.920C55.680-8.112 55.176-7.968 54.792-7.488C54.408-7.008 54.312-6.384 54.504-5.616L54.720-5.184C53.616-3.552 52.368-2.208 50.976-1.152C49.584-0.096 48.300 0.432 47.124 0.432C45.948 0.432 45.144 0.012 44.712-0.828C44.280-1.668 44.064-2.412 44.064-3.060C44.064-3.708 44.112-4.296 44.208-4.824C44.736-7.944 46.320-11.040 48.960-14.112C51.600-17.184 53.760-18.720 55.440-18.720C56.400-18.720 56.880-18.288 56.880-17.424C56.880-16.800 57.000-16.440 57.240-16.344C57.816-16.344 58.104-16.896 58.104-18.000C58.104-19.344 57.384-20.256 55.944-20.736C55.464-20.880 54.960-20.952 54.432-20.952C52.320-20.952 50.088-19.920 47.736-17.856C46.248-16.560 44.952-15.048 43.848-13.320C41.928-10.392 40.968-7.512 40.968-4.680C40.968-2.088 41.808-0.288 43.488 0.720C44.352 1.344 45.432 1.656 46.728 1.656C49.032 1.656 51.120 0.864 52.992-0.720C53.904-1.584 54.840-2.520 55.800-3.528C56.376-2.328 57.360-1.728 58.752-1.728C60.864-1.728 63.288-3.408 66.024-6.768C67.752-8.784 68.616-10.032 68.616-10.512C68.616-10.608 68.496-10.716 68.256-10.836C68.016-10.956 67.740-10.800 67.428-10.368C67.116-9.936 66.336-9.000 65.088-7.560C62.448-4.776 60.480-3.384 59.184-3.384C57.888-3.384 57.216-4.032 57.168-5.328C59.424-8.448 60.552-10.968 60.552-12.888C60.552-14.808 60.072-15.888 59.112-16.128C58.488-16.224 57.972-16.080 57.564-15.696C57.156-15.312 57.060-14.844 57.276-14.292C57.492-13.740 57.600-12.984 57.600-12.024C57.600-11.064 57.168-9.696 56.304-7.920Z"></path><path d="M81.576-7.920C80.952-8.112 80.448-7.968 80.064-7.488C79.680-7.008 79.584-6.384 79.776-5.616L79.992-5.184C78.888-3.552 77.640-2.208 76.248-1.152C74.856-0.096 73.572 0.432 72.396 0.432C71.220 0.432 70.416 0.012 69.984-0.828C69.552-1.668 69.336-2.412 69.336-3.060C69.336-3.708 69.384-4.296 69.480-4.824C70.008-7.944 71.592-11.040 74.232-14.112C76.872-17.184 79.032-18.720 80.712-18.720C81.672-18.720 82.152-18.288 82.152-17.424C82.152-16.800 82.272-16.440 82.512-16.344C83.088-16.344 83.376-16.896 83.376-18.000C83.376-19.344 82.656-20.256 81.216-20.736C80.736-20.880 80.232-20.952 79.704-20.952C77.592-20.952 75.360-19.920 73.008-17.856C71.520-16.560 70.224-15.048 69.120-13.320C67.200-10.392 66.240-7.512 66.240-4.680C66.240-2.088 67.080-0.288 68.760 0.720C69.624 1.344 70.704 1.656 72 1.656C74.304 1.656 76.392 0.864 78.264-0.720C79.176-1.584 80.112-2.520 81.072-3.528C81.648-2.328 82.632-1.728 84.024-1.728C86.136-1.728 88.560-3.408 91.296-6.768C93.024-8.784 93.888-10.032 93.888-10.512C93.888-10.608 93.768-10.716 93.528-10.836C93.288-10.956 93.012-10.800 92.700-10.368C92.388-9.936 91.608-9.000 90.360-7.560C87.720-4.776 85.752-3.384 84.456-3.384C83.160-3.384 82.488-4.032 82.440-5.328C84.696-8.448 85.824-10.968 85.824-12.888C85.824-14.808 85.344-15.888 84.384-16.128C83.760-16.224 83.244-16.080 82.836-15.696C82.428-15.312 82.332-14.844 82.548-14.292C82.764-13.740 82.872-12.984 82.872-12.024C82.872-11.064 82.440-9.696 81.576-7.920Z"></path><path d="M95.256 0.576C95.688 0.288 96.984-1.512 99.144-4.824C100.200-6.504 101.160-7.944 102.024-9.144C102.600-5.832 103.608-2.592 105.048 0.576C106.488 3.744 108.288 6.444 110.448 8.676C112.608 10.908 114.816 12.024 117.072 12.024C118.224 12.024 119.424 11.640 120.672 10.872C121.920 10.104 122.568 9.048 122.616 7.704C122.616 7.128 122.424 6.420 122.040 5.580C121.656 4.740 121.320 4.152 121.032 3.816C120.552 3.432 120.096 3.216 119.664 3.168C119.184 3.168 119.244 3.636 119.844 4.572C120.444 5.508 120.840 6.624 121.032 7.920C121.320 9.360 120.648 10.080 119.016 10.080C117.048 10.080 114.876 8.640 112.500 5.760C110.124 2.880 108.384 0.288 107.280-2.016C106.176-4.320 105.048-7.488 103.896-11.520C105.576-13.296 109.056-15.456 114.336-18.000C115.440-18.528 115.992-19.128 115.992-19.800C115.992-20.184 115.752-20.544 115.272-20.880C114.792-21.216 114.240-21.384 113.616-21.384C112.992-21.384 112.296-21.192 111.528-20.808C109.896-20.040 107.232-17.496 103.536-13.176L103.248-14.184C103.152-14.904 102.936-15.192 102.600-15.048C101.976-14.712 101.664-13.824 101.664-12.384C101.664-11.904 101.688-11.448 101.736-11.016L97.056-4.896C98.496-9.408 100.152-13.728 102.024-17.856C104.136-18.768 106.560-20.208 109.296-22.176C112.032-24.144 114.504-26.304 116.712-28.656C120.840-33.216 122.904-36.696 122.904-39.096C122.904-40.344 122.376-41.244 121.320-41.796C120.264-42.348 119.160-42.624 118.008-42.624C116.376-42.624 114.624-42.060 112.752-40.932C110.880-39.804 109.080-38.016 107.352-35.568C104.184-31.200 101.544-26.232 99.432-20.664C99.336-20.664 99.144-20.712 98.856-20.808C98.232-21.144 97.800-21.024 97.560-20.448C97.464-20.256 97.416-19.980 97.416-19.620C97.416-19.260 97.776-18.888 98.496-18.504C96.096-14.904 94.104-12.144 92.520-10.224C91.848-9.360 91.716-8.856 92.124-8.712C92.532-8.568 92.856-8.664 93.096-9.000C94.584-11.112 95.880-12.768 96.984-13.968C96.312-12.288 95.520-10.200 94.608-7.704C93.696-5.208 92.940-3.144 92.340-1.512C91.740 0.120 91.404 1.020 91.332 1.188C91.260 1.356 91.224 1.512 91.224 1.656C91.224 1.800 91.464 1.872 91.944 1.872C92.424 1.872 93.528 1.440 95.256 0.576ZM120.744-39.528C120.744-38.664 120.096-37.152 118.800-34.992C117.504-32.832 116.256-31.056 115.056-29.664C111.408-25.488 107.352-22.368 102.888-20.304C104.952-24.768 107.040-28.500 109.152-31.500C111.264-34.500 113.856-37.176 116.928-39.528C118.032-40.392 118.944-40.824 119.664-40.824C120.384-40.824 120.744-40.392 120.744-39.528Z"></path><path d="M136.872-19.440C134.232-19.440 131.484-18.216 128.628-15.768C125.772-13.320 123.456-10.776 121.680-8.136C122.208-10.920 122.952-13.176 123.912-14.904C127.800-17.592 131.808-20.868 135.936-24.732C140.064-28.596 142.752-31.800 144-34.344C144.768-35.832 145.152-37.212 145.152-38.484C145.152-39.756 144.456-40.800 143.064-41.616L141.624-42.120C141.000-42.264 140.400-42.336 139.824-42.336C136.560-42.336 133.392-39.912 130.320-35.064C128.832-32.760 127.200-29.676 125.424-25.812C123.648-21.948 122.328-18.816 121.464-16.416C120.840-15.024 118.656-12.000 114.912-7.344C114.720-7.104 114.624-6.900 114.624-6.732C114.624-6.564 114.648-6.432 114.696-6.336C114.936-5.856 115.272-5.856 115.704-6.336C116.568-7.296 117.324-8.268 117.972-9.252C118.620-10.236 119.040-10.824 119.232-11.016C118.560-8.568 118.224-6.240 118.224-4.032C118.224-3.264 118.368-2.520 118.656-1.800C119.808-0.408 120.696-0.336 121.320-1.584C121.560-2.064 121.644-2.412 121.572-2.628C121.500-2.844 121.464-3.048 121.464-3.240C121.464-4.584 122.244-6.312 123.804-8.424C125.364-10.536 126.888-12.216 128.376-13.464C131.880-16.488 134.712-18.000 136.872-18.000C137.544-18.000 137.964-17.652 138.132-16.956C138.300-16.260 138.312-15.576 138.168-14.904C137.208-10.488 134.472-6.696 129.960-3.528C125.304-0.072 121.512 1.656 118.584 1.656C115.896 1.656 114.936 1.848 115.704 2.232C116.664 2.664 117.960 2.880 119.592 2.880C123.624 2.880 127.680 1.488 131.760-1.296C134.400-3.024 136.776-5.124 138.888-7.596C141.000-10.068 142.056-12.384 142.056-14.544C142.056-14.832 142.032-15.144 141.984-15.480C141.840-16.344 141.168-17.220 139.968-18.108C138.768-18.996 137.736-19.440 136.872-19.440ZM134.568-25.920C131.256-22.656 127.968-19.944 124.704-17.784C129.360-28.248 134.160-35.376 139.104-39.168C140.256-40.032 141.168-40.464 141.840-40.464C142.704-40.464 143.136-39.888 143.136-38.736C143.136-35.952 140.280-31.680 134.568-25.920Z"></path><path d="M159.696-7.920C159.072-8.112 158.568-7.968 158.184-7.488C157.800-7.008 157.704-6.384 157.896-5.616L158.112-5.184C157.008-3.552 155.760-2.208 154.368-1.152C152.976-0.096 151.692 0.432 150.516 0.432C149.340 0.432 148.536 0.012 148.104-0.828C147.672-1.668 147.456-2.412 147.456-3.060C147.456-3.708 147.504-4.296 147.600-4.824C148.128-7.944 149.712-11.040 152.352-14.112C154.992-17.184 157.152-18.720 158.832-18.720C159.792-18.720 160.272-18.288 160.272-17.424C160.272-16.800 160.392-16.440 160.632-16.344C161.208-16.344 161.496-16.896 161.496-18.000C161.496-19.344 160.776-20.256 159.336-20.736C158.856-20.880 158.352-20.952 157.824-20.952C155.712-20.952 153.480-19.920 151.128-17.856C149.640-16.560 148.344-15.048 147.240-13.320C145.320-10.392 144.360-7.512 144.360-4.680C144.360-2.088 145.200-0.288 146.880 0.720C147.744 1.344 148.824 1.656 150.120 1.656C152.424 1.656 154.512 0.864 156.384-0.720C157.296-1.584 158.232-2.520 159.192-3.528C159.768-2.328 160.752-1.728 162.144-1.728C164.256-1.728 166.680-3.408 169.416-6.768C171.144-8.784 172.008-10.032 172.008-10.512C172.008-10.608 171.888-10.716 171.648-10.836C171.408-10.956 171.132-10.800 170.820-10.368C170.508-9.936 169.728-9.000 168.480-7.560C165.840-4.776 163.872-3.384 162.576-3.384C161.280-3.384 160.608-4.032 160.560-5.328C162.816-8.448 163.944-10.968 163.944-12.888C163.944-14.808 163.464-15.888 162.504-16.128C161.880-16.224 161.364-16.080 160.956-15.696C160.548-15.312 160.452-14.844 160.668-14.292C160.884-13.740 160.992-12.984 160.992-12.024C160.992-11.064 160.560-9.696 159.696-7.920Z"></path><path d="M184.968-7.920C184.344-8.112 183.840-7.968 183.456-7.488C183.072-7.008 182.976-6.384 183.168-5.616L183.384-5.184C182.280-3.552 181.032-2.208 179.640-1.152C178.248-0.096 176.964 0.432 175.788 0.432C174.612 0.432 173.808 0.012 173.376-0.828C172.944-1.668 172.728-2.412 172.728-3.060C172.728-3.708 172.776-4.296 172.872-4.824C173.400-7.944 174.984-11.040 177.624-14.112C180.264-17.184 182.424-18.720 184.104-18.720C185.064-18.720 185.544-18.288 185.544-17.424C185.544-16.800 185.664-16.440 185.904-16.344C186.480-16.344 186.768-16.896 186.768-18.000C186.768-19.344 186.048-20.256 184.608-20.736C184.128-20.880 183.624-20.952 183.096-20.952C180.984-20.952 178.752-19.920 176.400-17.856C174.912-16.560 173.616-15.048 172.512-13.320C170.592-10.392 169.632-7.512 169.632-4.680C169.632-2.088 170.472-0.288 172.152 0.720C173.016 1.344 174.096 1.656 175.392 1.656C177.696 1.656 179.784 0.864 181.656-0.720C182.568-1.584 183.504-2.520 184.464-3.528C185.040-2.328 186.024-1.728 187.416-1.728C189.528-1.728 191.952-3.408 194.688-6.768C196.416-8.784 197.280-10.032 197.280-10.512C197.280-10.608 197.160-10.716 196.920-10.836C196.680-10.956 196.404-10.800 196.092-10.368C195.780-9.936 195.000-9.000 193.752-7.560C191.112-4.776 189.144-3.384 187.848-3.384C186.552-3.384 185.880-4.032 185.832-5.328C188.088-8.448 189.216-10.968 189.216-12.888C189.216-14.808 188.736-15.888 187.776-16.128C187.152-16.224 186.636-16.080 186.228-15.696C185.820-15.312 185.724-14.844 185.940-14.292C186.156-13.740 186.264-12.984 186.264-12.024C186.264-11.064 185.832-9.696 184.968-7.920Z"></path><path d="M198.648 0.576C199.080 0.288 200.376-1.512 202.536-4.824C203.592-6.504 204.552-7.944 205.416-9.144C205.992-5.832 207-2.592 208.440 0.576C209.880 3.744 211.680 6.444 213.840 8.676C216 10.908 218.208 12.024 220.464 12.024C221.616 12.024 222.816 11.640 224.064 10.872C225.312 10.104 225.960 9.048 226.008 7.704C226.008 7.128 225.816 6.420 225.432 5.580C225.048 4.740 224.712 4.152 224.424 3.816C223.944 3.432 223.488 3.216 223.056 3.168C222.576 3.168 222.636 3.636 223.236 4.572C223.836 5.508 224.232 6.624 224.424 7.920C224.712 9.360 224.040 10.080 222.408 10.080C220.440 10.080 218.268 8.640 215.892 5.760C213.516 2.880 211.776 0.288 210.672-2.016C209.568-4.320 208.440-7.488 207.288-11.520C208.968-13.296 212.448-15.456 217.728-18.000C218.832-18.528 219.384-19.128 219.384-19.800C219.384-20.184 219.144-20.544 218.664-20.880C218.184-21.216 217.632-21.384 217.008-21.384C216.384-21.384 215.688-21.192 214.920-20.808C213.288-20.040 210.624-17.496 206.928-13.176L206.640-14.184C206.544-14.904 206.328-15.192 205.992-15.048C205.368-14.712 205.056-13.824 205.056-12.384C205.056-11.904 205.080-11.448 205.128-11.016L200.448-4.896C201.888-9.408 203.544-13.728 205.416-17.856C207.528-18.768 209.952-20.208 212.688-22.176C215.424-24.144 217.896-26.304 220.104-28.656C224.232-33.216 226.296-36.696 226.296-39.096C226.296-40.344 225.768-41.244 224.712-41.796C223.656-42.348 222.552-42.624 221.400-42.624C219.768-42.624 218.016-42.060 216.144-40.932C214.272-39.804 212.472-38.016 210.744-35.568C207.576-31.200 204.936-26.232 202.824-20.664C202.728-20.664 202.536-20.712 202.248-20.808C201.624-21.144 201.192-21.024 200.952-20.448C200.856-20.256 200.808-19.980 200.808-19.620C200.808-19.260 201.168-18.888 201.888-18.504C199.488-14.904 197.496-12.144 195.912-10.224C195.240-9.360 195.108-8.856 195.516-8.712C195.924-8.568 196.248-8.664 196.488-9.000C197.976-11.112 199.272-12.768 200.376-13.968C199.704-12.288 198.912-10.200 198-7.704C197.088-5.208 196.332-3.144 195.732-1.512C195.132 0.120 194.796 1.020 194.724 1.188C194.652 1.356 194.616 1.512 194.616 1.656C194.616 1.800 194.856 1.872 195.336 1.872C195.816 1.872 196.920 1.440 198.648 0.576ZM224.136-39.528C224.136-38.664 223.488-37.152 222.192-34.992C220.896-32.832 219.648-31.056 218.448-29.664C214.800-25.488 210.744-22.368 206.280-20.304C208.344-24.768 210.432-28.500 212.544-31.500C214.656-34.500 217.248-37.176 220.320-39.528C221.424-40.392 222.336-40.824 223.056-40.824C223.776-40.824 224.136-40.392 224.136-39.528Z"></path></g></g></g></g></svg>